Coordinates																																									
version=1																																									
nRows=28																																									
nColumns=42																																									
inDegrees=yes																																									
																																									
"Units are S.I. units (second, meters, Newtons, ...)"																																									
Angles are in degrees.																																									
																																									
endheader																																									
time	pelvis_tx	pelvis_ty	pelvis_tz	pelvis_tilt	pelvis_list	pelvis_rotation	hip_flexion_r	hip_adduction_r	hip_rotation_r	knee_angle_r	ankle_angle_r	subtalar_angle_r	mtp_angle_r	hip_flexion_l	hip_adduction_l	hip_rotation_l	knee_angle_l	ankle_angle_l	subtalar_angle_l	mtp_angle_l	lumbar_extension	lumbar_bending	lumbar_rotation	ground_force_vx	ground_force_vy	ground_force_vz	ground_force_px	ground_force_py	ground_force_pz	ground_force_vx	ground_force_vy	ground_force_vz	ground_force_px	ground_force_py	ground_force_pz	ground_torque_x	ground_torque_y	ground_torque_z	ground_torque_x	ground_torque_y	ground_torque_z
1.28	0.26687	0.675379	0.095408	-2.738286	18.586641	-106.086388	49.090451	12.045746	-8.003529	-48.29721	12.48085	0	0	25.904471	-9.673243	-12.163763	-62.467524	5.681595	0	0	18.282781	5.62453	5.826976	18.353548	212.331604	-33.956448	0.211627	-0.00391	0.199446	-8.172859	63.578915	12.151793	0.40077	-0.000847	-0.110329	-0.002244	-0.388378	0.007066	0.000425	-0.03554	-0.00071
1.29	0.263001	0.672776	0.103175	-3.250323	18.50807	-106.020081	49.073325	12.743883	-8.234337	-49.993716	12.923087	0	0	25.949262	-11.363771	-13.184599	-64.114473	4.18323	0	0	18.59365	5.988569	6.254591	19.524296	238.203217	-38.25082	0.211927	-0.003432	0.200957	-6.772603	51.316833	9.535133	0.400308	-0.001669	-0.105432	-0.00212	-0.366999	0.006677	0.000117	-0.009807	-0.000196
1.3	0.25926	0.670296	0.110902	-3.727097	18.408018	-105.959503	49.047875	13.415542	-8.410931	-51.691602	13.359252	0	0	26.024293	-12.900489	-13.992781	-65.83452	2.867052	0	0	18.850962	6.329134	6.664731	20.15979	260.258728	-41.752087	0.212037	-0.003104	0.20201	-5.39932	39.816071	6.884489	0.399438	-0.002453	-0.099973	-0.001826	-0.316138	0.005752	-0.000173	0.01444	0.000289
1.31	0.255784	0.668091	0.118501	-4.119612	18.286177	-105.92247	49.007389	14.016822	-8.490944	-53.341452	13.75674	0	0	26.1607	-14.169093	-14.518708	-67.580993	1.84541	0	0	19.035367	6.61217	7.06518	20.48628	278.510162	-44.11763	0.212032	-0.002873	0.20264	-4.119144	29.470638	4.424	0.39828	-0.00314	-0.093271	-0.001489	-0.257739	0.004689	-0.000451	0.037697	0.000753
1.32	0.252631	0.666264	0.125903	-4.414312	18.150337	-105.910492	48.945829	14.525212	-8.475008	-54.895251	14.07796	0	0	26.384225	-15.14422	-14.761734	-69.309638	1.171068	0	0	19.148309	6.827731	7.459028	20.736231	293.147736	-45.150558	0.211989	-0.002694	0.202959	-2.986028	20.590681	2.339746	0.396838	-0.003739	-0.084072	-0.001231	-0.213038	0.003876	-0.000719	0.060103	0.001201
1.33	0.249813	0.664882	0.133065	-4.621098	18.010405	-105.911118	48.856405	14.93035	-8.391423	-56.312492	14.290471	0	0	26.712252	-15.855574	-14.762993	-70.977393	0.852957	0	0	19.202273	6.981188	7.840214	21.068197	304.386749	-44.840672	0.211958	-0.002536	0.203092	0	0	0	0	0	0	-0.001135	-0.196402	0.003573	0	0	0
1.34	0.247319	0.663974	0.139963	-4.753525	17.877386	-105.909027	48.737085	15.225707	-8.272997	-57.566235	14.372303	0	0	27.15627	-16.350599	-14.584945	-72.541008	0.870954	0	0	19.216319	7.080364	8.205537	21.527241	312.374573	-43.327091	0.21196	-0.002381	0.20314	0	0	0	0	0	0	-0.001227	-0.212309	0.003863	0	0	0
1.35	0.245123	0.663541	0.146588	-4.820538	17.765457	-105.890869	48.595618	15.40606	-8.147505	-58.643567	14.311862	0	0	27.728114	-16.675062	-14.29386	-73.959638	1.188283	0	0	19.214907	7.131337	8.559545	22.060347	317.169312	-40.842205	0.211988	-0.002214	0.203175	0	0	0	0	0	0	-0.001479	-0.25599	0.004658	0	0	0
1.36	0.243206	0.663563	0.152943	-4.834343	17.688396	-105.840317	48.443182	15.470655	-8.042881	-59.540309	14.106026	0	0	28.439361	-16.871493	-13.941495	-75.200697	1.764258	0	0	19.22021	7.143974	8.902386	22.566702	318.788116	-37.67757	0.212011	-0.002031	0.203233	0	0	0	0	0	0	-0.001831	-0.316956	0.005767	0	0	0
1.37	0.241553	0.664017	0.15904	-4.81585	17.652452	-105.738289	48.28369	15.427468	-7.98683	-60.256277	13.758267	0	0	29.293093	-16.981293	-13.560977	-76.242075	2.559993	0	0	19.242671	7.134036	9.222546	22.945621	317.290192	-34.133469	0.211999	-0.001832	0.203324	0	0	0	0	0	0	-0.002217	-0.383648	0.00698	0	0	0
1.38	0.240148	0.664874	0.164898	-4.786504	17.655907	-105.5709	48.113833	15.291632	-7.996862	-60.795343	13.277683	0	0	30.281476	-17.039276	-13.175548	-77.070168	3.537483	0	0	19.28194	7.116337	9.50453	23.129122	312.845123	-30.474876	0.211927	-0.001623	0.203444	0	0	0	0	0	0	-0.00258	-0.446513	0.008124	0	0	0
1.39	0.238974	0.666101	0.170535	-4.758928	17.69459	-105.333977	47.930596	15.079774	-8.075483	-61.166858	12.678571	0	0	31.391748	-17.067007	-12.804531	-77.678034	4.65787	0	0	19.334896	7.098851	9.73798	23.092398	305.785095	-26.905224	0.211785	-0.001409	0.203584	0	0	0	0	0	0	-0.002886	-0.499539	0.009089	0	0	0
1.4	0.238011	0.667651	0.175973	-4.736526	17.764448	-105.030983	47.733453	14.806756	-8.213974	-61.384754	11.979719	0	0	32.609673	-17.073052	-12.463723	-78.065169	5.880252	0	0	19.39924	7.083301	9.918463	22.847252	296.615356	-23.561401	0.211577	-0.001195	0.20374	0	0	0	0	0	0	-0.003124	-0.54066	0.009837	0	0	0
1.41	0.237243	0.669472	0.181235	-4.71474	17.860781	-104.671722	47.52268	14.4842	-8.395464	-61.466416	11.203331	0	0	33.918368	-17.055343	-12.16733	-78.236388	7.162017	0	0	19.473117	7.065701	10.045099	22.43244	285.979645	-20.528063	0.21132	-0.000982	0.203916	0	0	0	0	0	0	-0.003295	-0.570401	0.010378	0	0	0
1.42	0.236649	0.671506	0.186345	-4.681004	17.978786	-104.271599	47.299904	14.119089	-8.596894	-61.432224	10.373577	0	0	35.298903	-17.002851	-11.930138	-78.200441	8.461074	0	0	19.55602	7.035816	10.11905	21.893536	274.576202	-17.84597	0.211041	-0.000771	0.204116	0	0	0	0	0	0	-0.003412	-0.590534	0.010744	0	0	0
1.43	0.236211	0.673695	0.191329	-4.621429	18.114151	-103.847588	47.066748	13.716799	-8.795565	-61.302478	9.514582	0	0	36.731934	-16.903284	-11.764807	-77.970619	9.73897	0	0	19.648434	6.982682	10.141716	21.266226	263.07019	-15.516669	0.210768	-0.000564	0.204344	0	0	0	0	0	0	-0.003483	-0.602813	0.010968	0	0	0
1.44	0.235909	0.675986	0.196217	-4.529432	18.261492	-103.414093	46.820762	13.286105	-8.975248	-61.093734	8.648926	0	0	38.196774	-16.752203	-11.678652	-77.565281	10.963452	0	0	19.748905	6.901753	10.114947	20.566822	252.015152	-13.510189	0.210528	-0.000361	0.204601	0	0	0	0	0	0	-0.003515	-0.608472	0.011071	0	0	0
1.45	0.235724	0.678332	0.201037	-4.403678	18.413408	-102.984283	46.555457	12.837626	-9.124662	-60.819932	7.797256	0	0	39.670142	-16.55198	-11.676681	-77.005274	12.108756	0	0	19.852986	6.793116	10.044713	19.797771	241.805939	-11.778397	0.21034	-0.000163	0.204884	0	0	0	0	0	0	-0.003511	-0.60771	0.011057	0	0	0
1.46	0.235633	0.680696	0.205816	-4.241365	18.561975	-102.573021	46.264563	12.379276	-9.233617	-60.495334	6.977439	0	0	41.127714	-16.306499	-11.766773	-76.310528	13.154631	0	0	19.955436	6.655893	9.943137	18.95718	232.664749	-10.268788	0.210209	0.000028	0.205186	0	0	0	0	0	0	-0.003466	-0.599931	0.010915	0	0	0
1.47	0.235615	0.683043	0.210577	-4.039685	18.701887	-102.195061	45.945405	11.917051	-9.295165	-60.133928	6.202784	0	0	42.549094	-16.022528	-11.958116	-75.499934	14.086193	0	0	20.053195	6.489425	9.824339	18.047241	224.670349	-8.933891	0.210136	0.000213	0.205501	0	0	0	0	0	0	-0.003377	-0.584461	0.010634	0	0	0
1.48	0.235648	0.685337	0.215339	-3.800388	18.833132	-101.861534	45.60059	11.458108	-9.309014	-59.747613	5.481771	0	0	43.922512	-15.713204	-12.256803	-74.592585	14.894264	0	0	20.147414	6.297115	9.70009	17.079914	217.790649	-7.738751	0.210118	0.000392	0.205819	0	0	0	0	0	0	-0.00324	-0.560741	0.010202	0	0	0
1.49	0.235712	0.687546	0.220116	-3.528543	18.960283	-101.580582	45.237535	11.010447	-9.279294	-59.346694	4.819965	0	0	45.243863	-15.396322	-12.666719	-73.606845	15.575007	0	0	20.242755	6.085644	9.58189	16.077871	211.928177	-6.660346	0.210139	0.000567	0.206122	0	0	0	0	0	0	-0.003054	-0.528561	0.009617	0	0	0
1.5	0.235789	0.689639	0.224917	-3.229794	19.088367	-101.358231	44.864627	10.58021	-9.211842	-58.941001	4.221727	0	0	46.511276	-15.089529	-13.191252	-72.558261	16.128727	0	0	20.343628	5.862218	9.481091	15.073795	206.971771	-5.677631	0.210185	0.000739	0.206393	0	0	0	0	0	0	-0.002825	-0.488896	0.008895	0	0	0
1.51	0.23587	0.691597	0.229753	-2.91005	19.218826	-101.196373	44.486784	10.16908	-9.114811	-58.539946	3.690355	0	0	47.720602	-14.805793	-13.83142	-71.458313	16.558434	0	0	20.450539	5.632907	9.401922	14.104289	202.824646	-4.762298	0.210251	0.000904	0.20662	0	0	0	0	0	0	-0.002563	-0.443622	0.008071	0	0	0
1.52	0.23596	0.693407	0.23463	-2.575353	19.349743	-101.090927	44.105547	9.77318	-8.99932	-58.152408	3.227328	0	0	48.86594	-14.550519	-14.583516	-70.314284	16.868815	0	0	20.560698	5.402361	9.338994	13.203644	199.420456	-3.883279	0.210341	0.001059	0.206791	0	0	0	0	0	0	-0.002285	-0.395476	0.007195	0	0	0
1.53	0.23607	0.69506	0.239555	-2.229657	19.480431	-101.034355	43.724248	9.384222	-8.876432	-57.787102	2.832163	0	0	49.943887	-14.321621	-15.440607	-69.129649	17.065388	0	0	20.672925	5.173536	9.284933	12.401533	196.704712	-3.009736	0.210458	0.001197	0.206905	0	0	0	0	0	0	-0.002009	-0.347782	0.006328	0	0	0
1.54	0.236212	0.696542	0.244531	-1.871895	19.61351	-101.020798	43.350664	8.991842	-8.75189	-57.453215	2.503262	0	0	50.95429	-14.112019	-16.397911	-67.904518	17.153346	0	0	20.789885	4.945929	9.237908	11.721496	194.626663	-2.116186	0.210605	0.001315	0.206966	0	0	0	0	0	0	-0.001755	-0.303853	0.005528	0	0	0
1.55	0.236396	0.697845	0.249561	-1.501612	19.750307	-101.045052	42.99015	8.588534	-8.628654	-57.157987	2.23778	0	0	51.895753	-13.915018	-17.450809	-66.638181	17.136941	0	0	20.912673	4.719116	9.198257	11.178859	193.131149	-1.186989	0.210781	0.001411	0.206976	0	0	0	0	0	0	-0.001535	-0.265696	0.004834	0	0	0
